<svg xmlns="http://www.w3.org/2000/svg" width="1200" height="630" viewBox="0 0 1200 630">
  <defs>
    <radialGradient id="ground" cx="74%" cy="47%" r="78%">
      <stop offset="0" stop-color="#173034"/>
      <stop offset=".5" stop-color="#091216"/>
      <stop offset="1" stop-color="#05070a"/>
    </radialGradient>
    <radialGradient id="cyan" cx="42%" cy="38%" r="72%">
      <stop offset="0" stop-color="#c9fff4" stop-opacity=".64"/>
      <stop offset=".36" stop-color="#27d8d7" stop-opacity=".42"/>
      <stop offset="1" stop-color="#087b8f" stop-opacity=".12"/>
    </radialGradient>
    <radialGradient id="ember" cx="43%" cy="38%" r="72%">
      <stop offset="0" stop-color="#ffe5af" stop-opacity=".68"/>
      <stop offset=".36" stop-color="#ff713c" stop-opacity=".46"/>
      <stop offset="1" stop-color="#8f271a" stop-opacity=".12"/>
    </radialGradient>
    <radialGradient id="violet" cx="42%" cy="38%" r="72%">
      <stop offset="0" stop-color="#f2ddff" stop-opacity=".66"/>
      <stop offset=".36" stop-color="#ba72ed" stop-opacity=".44"/>
      <stop offset="1" stop-color="#553079" stop-opacity=".12"/>
    </radialGradient>
    <linearGradient id="left-fade" x1="0%" x2="100%">
      <stop offset="0" stop-color="#05070a" stop-opacity=".82"/>
      <stop offset=".72" stop-color="#05070a" stop-opacity=".72"/>
      <stop offset="1" stop-color="#05070a" stop-opacity="0"/>
    </linearGradient>
    <pattern id="cyan-points" width="37" height="33" patternUnits="userSpaceOnUse">
      <circle cx="7" cy="9" r="2" fill="#dcfff8" opacity=".95"/>
      <circle cx="25" cy="6" r="1.15" fill="#65ede8" opacity=".78"/>
      <circle cx="19" cy="26" r="1.55" fill="#a3fff5" opacity=".88"/>
      <circle cx="34" cy="20" r=".8" fill="#2fd0d4" opacity=".7"/>
    </pattern>
    <pattern id="ember-points" width="41" height="37" patternUnits="userSpaceOnUse">
      <circle cx="8" cy="11" r="1.9" fill="#fff0bd" opacity=".94"/>
      <circle cx="31" cy="8" r="1.1" fill="#ff9a60" opacity=".78"/>
      <circle cx="22" cy="30" r="1.5" fill="#ffd58d" opacity=".88"/>
      <circle cx="38" cy="24" r=".8" fill="#ff6239" opacity=".72"/>
    </pattern>
    <pattern id="violet-points" width="39" height="35" patternUnits="userSpaceOnUse">
      <circle cx="7" cy="8" r="1.9" fill="#f7e9ff" opacity=".94"/>
      <circle cx="29" cy="10" r="1.1" fill="#d39aff" opacity=".78"/>
      <circle cx="19" cy="28" r="1.5" fill="#ead0ff" opacity=".88"/>
      <circle cx="36" cy="24" r=".8" fill="#a961de" opacity=".7"/>
    </pattern>
    <filter id="glow" x="-40%" y="-40%" width="180%" height="180%">
      <feGaussianBlur stdDeviation="13" result="blur"/>
      <feMerge><feMergeNode in="blur"/><feMergeNode in="SourceGraphic"/></feMerge>
    </filter>
    <filter id="soft" x="-30%" y="-30%" width="160%" height="160%">
      <feGaussianBlur stdDeviation="28"/>
    </filter>
    <clipPath id="cyan-field">
      <path d="M667 104c86-40 192-4 220 74 26 73-27 118-5 185 22 66-39 118-106 91-71-31-92-93-160-107-72-15-93-99-46-153 29-34 55-71 97-90z"/>
    </clipPath>
    <clipPath id="ember-field">
      <path d="M965 70c68-17 141 23 155 91 14 64-35 94-26 151 9 56-46 91-96 62-51-29-56-79-104-102-51-24-48-91-6-124 27-21 42-69 77-78z"/>
    </clipPath>
    <clipPath id="violet-field">
      <path d="M813 307c73-41 169-16 201 57 31 68-16 115 11 176 28 59-27 115-90 95-67-21-93-77-157-82-68-6-97-81-59-134 24-35 57-90 94-112z"/>
    </clipPath>
  </defs>
  <rect width="1200" height="630" fill="url(#ground)"/>
  <circle cx="755" cy="265" r="240" fill="#1a8f98" opacity=".19" filter="url(#soft)"/>
  <circle cx="1010" cy="220" r="185" fill="#a33b25" opacity=".18" filter="url(#soft)"/>
  <circle cx="880" cy="465" r="210" fill="#6e3f94" opacity=".19" filter="url(#soft)"/>
  <g filter="url(#glow)" stroke-width="2.2">
    <path d="M667 104c86-40 192-4 220 74 26 73-27 118-5 185 22 66-39 118-106 91-71-31-92-93-160-107-72-15-93-99-46-153 29-34 55-71 97-90z" fill="url(#cyan)" stroke="#76f6ed" stroke-opacity=".74"/>
    <path d="M965 70c68-17 141 23 155 91 14 64-35 94-26 151 9 56-46 91-96 62-51-29-56-79-104-102-51-24-48-91-6-124 27-21 42-69 77-78z" fill="url(#ember)" stroke="#ffad72" stroke-opacity=".76"/>
    <path d="M813 307c73-41 169-16 201 57 31 68-16 115 11 176 28 59-27 115-90 95-67-21-93-77-157-82-68-6-97-81-59-134 24-35 57-90 94-112z" fill="url(#violet)" stroke="#dbabff" stroke-opacity=".72"/>
  </g>
  <g opacity=".94">
    <rect x="540" y="55" width="410" height="430" fill="url(#cyan-points)" clip-path="url(#cyan-field)"/>
    <rect x="860" y="45" width="330" height="360" fill="url(#ember-points)" clip-path="url(#ember-field)"/>
    <rect x="690" y="275" width="430" height="355" fill="url(#violet-points)" clip-path="url(#violet-field)"/>
  </g>
  <g fill="none" stroke-width="1.2">
    <path d="M625 221c56-68 148-83 214-28M753 383c-42-49-100-61-149-34" stroke="#a8fff4" opacity=".43"/>
    <path d="M910 172c50-46 119-44 162 0" stroke="#ffd09f" opacity=".41"/>
    <path d="M756 435c55-65 153-77 222-23" stroke="#edceff" opacity=".41"/>
  </g>
  <rect width="670" height="630" fill="url(#left-fade)"/>
  <g font-family="Avenir Next, Helvetica Neue, Arial, sans-serif" fill="#eee9df">
    <text x="70" y="298" font-size="82" font-weight="500" letter-spacing="10">CONFLUON</text>
    <text x="75" y="351" font-family="SFMono-Regular, Menlo, monospace" font-size="15" letter-spacing="3.2" fill="#aeb5b0">GENERATIVE AUDIOVISUAL INSTRUMENT</text>
    <text x="75" y="550" font-family="SFMono-Regular, Menlo, monospace" font-size="13" letter-spacing="2.7" fill="#878e89">CONFLUON.COM</text>
  </g>
</svg>
